<!-- fox graphic -->
            <svg width="1002" height="863" viewBox="0 0 1002 863" fill="none" xmlns="http://www.w3.org/2000/svg">
                <g id="fox">
                    <g id="head">
                        <line id="Line 15" y1="-2.5" x2="204.775" y2="-1.35042"
                            transform="matrix(-0.971971 -0.2351 -0.2351 0.971971 542.223 508.569)" stroke="black"
                            stroke-width="5" />
                        <line id="Line 16" y1="-2.5" x2="127.072" y2="-2.41776"
                            transform="matrix(-0.674202 0.738547 0.738547 0.674202 716.96 348.265)" stroke="black"
                            stroke-width="5" />
                        <line id="Line 18" y1="-2.5" x2="117.957" y2="-2.41776"
                            transform="matrix(0.622451 0.782658 0.782658 -0.622451 640.474 253.274)" stroke="black"
                            stroke-width="5" />
                        <line id="Line 20" y1="-2.5" x2="107.408" y2="-1.5"
                            transform="matrix(0.939094 0.343659 0.343659 -0.939094 537.549 217.057)" stroke="black"
                            stroke-width="5" />
                        <line id="Line 21" y1="-2.5" x2="145.995" y2="-1.5"
                            transform="matrix(0.111052 0.993815 0.993815 -0.111052 625.608 111.111)" stroke="black"
                            stroke-width="5" />
                        <line id="Line 22" y1="-2.5" x2="144.11" y2="-1.5"
                            transform="matrix(-0.629625 0.776899 0.776899 0.629625 625.876 111.218)" stroke="black"
                            stroke-width="5" />
                        <line id="Line 23" y1="-2.5" x2="115.843" y2="-1.5"
                            transform="matrix(-0.956957 0.290231 0.290231 0.956957 535.328 222.692)" stroke="black"
                            stroke-width="5" />
                        <line id="Line 24" y1="-2.5" x2="110.041" y2="-1.5"
                            transform="matrix(-0.632901 0.774233 0.774233 0.632901 427.934 254.218)" stroke="black"
                            stroke-width="5" />
                        <line id="Line 27" y1="-2.5" x2="123.561" y2="-1.5"
                            transform="matrix(-0.0787216 0.996897 0.996897 0.0787216 358.413 335.303)" stroke="black"
                            stroke-width="5" />
                        <line id="Line 28" y1="-2.5" x2="132.671" y2="-1.5"
                            transform="matrix(0.847971 0.530042 0.530042 -0.847971 357.288 335.066)" stroke="black"
                            stroke-width="5" />
                        <line id="Line 30" y1="-2.5" x2="150.583" y2="-1.5"
                            transform="matrix(0.616544 0.78732 0.78732 -0.616544 428.288 249.834)" stroke="black"
                            stroke-width="5" />
                        <line id="Line 31" y1="-2.5" x2="155.745" y2="-1.5"
                            transform="matrix(-0.0983333 0.995154 0.995154 0.0983333 538.096 218.218)" stroke="black"
                            stroke-width="5" />
                        <line id="Line 32" y1="-2.5" x2="129.65" y2="-1.5"
                            transform="matrix(-0.43363 0.901091 0.901091 0.43363 641.585 256.218)" stroke="black"
                            stroke-width="5" />
                        <line id="Line 33" y1="-2.5" x2="120.35" y2="-1.5"
                            transform="matrix(-0.0105555 0.999944 0.999944 0.0105555 584.294 371.052)" stroke="black"
                            stroke-width="5" />
                        <line id="Line 35" y1="-2.5" x2="115.531" y2="0.511885"
                            transform="matrix(0.296137 0.955146 0.955146 -0.296137 521.288 367.11)" stroke="black"
                            stroke-width="5" />
                        <line id="Line 36" x1="582.781" y1="371.828" x2="520.273" y2="369.841" stroke="black"
                            stroke-width="5" />
                        <line id="Line 37" x1="520.516" y1="370.666" x2="464.436" y2="405.463" stroke="black"
                            stroke-width="5" />
                        <line id="Line 34" y1="-2.5" x2="118.913" y2="-1.5"
                            transform="matrix(0.559494 0.828834 0.828834 -0.559494 469.628 404.689)" stroke="black"
                            stroke-width="5" />
                        <line id="Line 29" y1="-2.5" x2="131.856" y2="-1.5"
                            transform="matrix(0.920239 -0.391356 -0.391356 -0.920239 344.1 454.741)" stroke="black"
                            stroke-width="5" />
                        <line id="Line 25" y1="-2.5" x2="152.853" y2="-1.5"
                            transform="matrix(-0.943958 -0.330065 -0.330065 0.943958 428.982 255.419)" stroke="black"
                            stroke-width="5" />
                        <line id="Line 26" y1="-2.5" x2="152.387" y2="-1.5"
                            transform="matrix(-0.463382 -0.886158 -0.886158 0.463382 355.5 340.056)" stroke="black"
                            stroke-width="5" />
                        <line id="Line 19" y1="-2.5" x2="134.163" y2="-1.5"
                            transform="matrix(0.983823 -0.179142 -0.179142 -0.983823 581.206 369.482)" stroke="black"
                            stroke-width="5" />
                        <line id="Line 17" y1="-2.5" x2="85.4986" y2="-1.35042"
                            transform="matrix(-0.681299 0.732005 0.732005 0.681299 635.565 437.427)" stroke="black"
                            stroke-width="5" />
                    </g>
                    <g id="body">
                        <line id="Line 1" y1="-3.5" x2="159.731" y2="-2.5"
                            transform="matrix(0.75555 0.655091 0.655091 -0.75555 310.189 642.628)" stroke="black"
                            stroke-width="7" />
                        <line id="Line 2" y1="-3.5" x2="244.628" y2="-2.35042"
                            transform="matrix(0.682556 0.730833 0.730833 -0.682556 324.288 568.002)" stroke="black"
                            stroke-width="7" />
                        <line id="Line 3" y1="-3.5" x2="219.962" y2="-2.35042"
                            transform="matrix(0.937093 0.349079 0.349079 -0.937093 323.89 560.614)" stroke="black"
                            stroke-width="7" />
                        <line id="Line 10" y1="-3.5" x2="183.438" y2="-2.35042"
                            transform="matrix(0.507102 0.861886 0.861886 -0.507102 467.81 486.28)" stroke="black"
                            stroke-width="7" />
                        <line id="Line 11" y1="-3.5" x2="223.632" y2="-2.35042"
                            transform="matrix(-0.225567 0.974228 0.974228 0.225567 635.733 438.605)" stroke="black"
                            stroke-width="7" />
                        <line id="Line 12" y1="-3.5" x2="129.754" y2="-2.35042"
                            transform="matrix(-0.745414 0.666602 0.666602 0.745414 421.434 479.333)" stroke="black"
                            stroke-width="7" />
                        <line id="Line 13" y1="-3.5" x2="146.085" y2="-2.35042"
                            transform="matrix(0.101176 0.994869 0.994869 -0.101176 562.419 504.305)" stroke="black"
                            stroke-width="7" />
                        <line id="Line 14" y1="-3.5" x2="56.3429" y2="-2.5"
                            transform="matrix(-0.751379 0.659871 0.659871 0.751379 528.555 588.954)" stroke="black"
                            stroke-width="7" />
                        <line id="Line 4" y1="-3.5" x2="88.022" y2="-2.46941"
                            transform="matrix(-0.163704 0.986509 0.986509 0.163704 327.207 561.929)" stroke="black"
                            stroke-width="7" />
                        <line id="Line 5" y1="-3.5" x2="111.884" y2="-2.5"
                            transform="matrix(-0.327135 0.944978 0.944978 0.327135 527.89 641.218)" stroke="black"
                            stroke-width="7" />
                        <line id="Line 6" y1="-3.5" x2="111.884" y2="-2.5"
                            transform="matrix(-0.999962 0.00867174 0.00867174 0.999962 538.168 751.218)" stroke="black"
                            stroke-width="7" />
                        <path id="Line 8" d="M634.788 696.718L572.288 647.218" stroke="black" stroke-width="7" />
                        <line id="Line 7" y1="-3.5" x2="108.241" y2="-2.5"
                            transform="matrix(-0.874798 0.484487 0.484487 0.874798 632.977 699.078)" stroke="black"
                            stroke-width="7" />
                        <path id="Line 9" d="M574.288 649.218L521.288 639.218" stroke="black" stroke-width="7" />
                    </g>
                    <g id="eyes">
                        <path id="Polygon 2" d="M579.102 368.893L623.713 364.094L579.002 413.761L579.102 368.893Z"
                            fill="black" />
                        <path id="Polygon 1" d="M469.28 401.748L493.191 439.584L429.091 421.449L469.28 401.748Z"
                            fill="black" />
                    </g>
                    <g id="nose">
                        <ellipse id="Ellipse 1" cx="559.288" cy="501.648" rx="20.2028" ry="5.75949"
                            transform="rotate(-14.3596 559.288 501.648)" fill="black" />
                        <path id="Polygon 3" d="M551.39 471.717L582.831 493.887L535.386 506.701L551.39 471.717Z"
                            fill="black" />
                    </g>
                </g>
            </svg>