<svg width="794" height="901" viewBox="0 0 794 901" fill="none" xmlns="http://www.w3.org/2000/svg">
<g id="paw2">
<path id="Vector" d="M300.4 1.29999C295.1 2.79999 293.4 4.29999 292.6 8.09999C292.3 9.79999 291.4 11.8 290.6 12.5C289.8 13.3 288.9 15.9 288.5 18.2C288.1 20.6 287.3 23.1 286.8 23.8C286.2 24.5 284.9 27.8 283.9 31.3C283 34.7 281.5 39.5 280.7 42C276.2 55.8 276 57 276 75.9C276 86.1 276.5 98.5 277 103.5C278.4 115.7 277.8 117.1 269.2 120C265.5 121.2 261.6 123 260.5 123.9C259.4 124.8 256.6 126.8 254.4 128.4C252.1 129.9 249.5 131.9 248.7 132.8C242.4 139.6 239.2 144.2 235 152.7C232.4 158.1 228.4 165.4 226.1 169C216.5 184.3 210.4 198 209 207.2C208.1 213.4 203.5 226 198.9 235.2C197.3 238.4 196 241.6 196 242.5C196 243.3 194.9 245.2 193.5 246.7C190.9 249.6 187.9 254 184.4 260.1C182.1 264 176 282.1 176 285C176 286 174.8 291.2 173.4 296.6C171.3 304.4 170.9 307.6 171.5 312.3C172.2 318.5 174.8 326.2 177.7 330.7C179.5 333.4 180.2 335.5 183.4 348C186 357.8 189.7 365.6 195.5 373.2C198.8 377.5 201.6 382.5 203 386.7C204.2 390.5 206 394.4 207 395.5C208 396.6 209.5 399.1 210.4 401C213.1 407 215.8 411.2 217.9 412.7C219.1 413.5 220 414.7 220 415.5C220 416.3 221.4 417.9 223 419.2C224.7 420.4 226 421.9 226 422.6C226 424.3 244.1 440 251.4 444.7C254.4 446.6 256.2 447.1 259.4 446.7C268.4 445.7 276.4 443.8 280.4 441.8C284.1 439.8 287.5 438.9 296.7 437.3C299.6 436.8 300.1 437.2 303.4 442.4C305.4 445.5 307 448.5 307 449C307 450.5 312.6 453 315.7 453C319.1 453 327.8 450.4 329.6 448.9C330.4 448.2 331 445.8 331 443.1C331 438.2 331.4 436.6 335.4 422.5C338.2 412.5 341.1 405.9 344.1 402.6C346.8 399.8 350.7 394 351.9 391.3C353.3 388.2 370.6 370.9 376.2 367.2C378.7 365.5 382.4 362.1 384.4 359.8L388 355.6V342.1C388.1 328.5 388.5 326.4 392.8 315.7C393.5 314.1 394 312 394 311C394 309.9 394.4 308.1 394.9 306.8C398 299 399 293 399 283C399 273.3 401.6 256.2 403.5 253.1C403.8 252.5 405.4 252 407 252C410 252 416 246.8 416 244.2C416 241.5 413.9 239.1 410.7 238.1C408.9 237.5 404.9 234.4 401.9 231.2C397.2 226.4 395.9 224.3 394 218C392.7 213.9 390.3 207.3 388.7 203.5C387.1 199.6 385 193.7 383.9 190.2C382.8 186.8 381.6 184 381.1 184C380.7 184 379.4 183.1 378.3 182.1C376.8 180.7 375.9 177.9 375 171.9C373.7 162.7 370.6 153.1 368.3 151.3C367.4 150.6 365.6 150.3 364.1 150.6C359.7 151.5 346.4 144.7 341.1 138.7C338.6 136 332.8 129.8 328.2 125C317.1 113.4 316.2 108.2 323.6 100.3C328.7 94.8 330.1 91.7 330.7 84.2C331.1 78.9 330.8 76.2 329.1 71.5C326.6 64.4 326.5 61.9 328.6 57.9C330 55.1 330 54.4 328.6 50.2C327.7 47.7 327 42.4 327 38.4C327 32.1 326.7 30.9 324.9 29.6C322.7 28.1 321.9 25.3 320 13.4C318.6 4.49999 318.4 4.29999 311.5 2.09999C308 0.899993 305 -6.75023e-06 304.8 0.0999933C304.6 0.199993 302.6 0.699993 300.4 1.29999Z" fill="black"/>
<path id="Vector_2" d="M562.5 21.3C558.7 25.3 554.3 30.3 552.9 32.5C551.4 34.7 548.3 38.5 545.9 40.9C541.1 45.9 534 55.8 534 57.7C534 58.4 532.9 60 531.7 61.3C528.2 64.7 525 76 524.3 87.6C523.8 96.6 524 98.6 526.5 107.6C531.9 126.6 534.7 130.2 544.2 130.2C553.1 130.1 557.4 126 563.4 111.7C564.3 109.6 565.8 107.6 566.8 107.2C567.8 106.8 570 105.5 571.6 104.2C586.3 92.8 585.4 93.8 586.2 88C590.1 58.6 592.5 27.9 591.4 20.2C590.7 14.8 588.9 14 577.7 14L569.5 14.1L562.5 21.3Z" fill="black"/>
<path id="Vector_3" d="M539 143.6C537.1 144.3 532.6 144.9 529.2 144.9C525.6 145 521.4 145.7 519.6 146.5C516.3 148.1 505.6 158.5 502.8 163C501.4 165.3 496.2 167.7 486.6 170.6C484.6 171.3 483.4 172.5 482.5 175.2C481.9 177.2 479.9 180.6 478.3 182.7C472.2 190.5 466.3 199.7 463.1 206.5C461.3 210.3 458.6 216.2 457 219.5C454.4 224.9 452.3 230.7 450 239.5C449.6 241.1 448.3 246 447.1 250.2C446 254.5 445 259.4 445 261.2C445 263.1 444.2 266.1 443.2 268C435.2 282.9 433.3 314.3 438.5 343.5C439.3 347.9 440.2 354.9 440.5 359C440.9 363.1 441.8 369 442.5 372C443.3 375 444.1 384.5 444.3 393C444.7 406.9 445 409.2 447.4 415C448.9 418.5 451.3 422.8 452.8 424.5C458.7 431 462.2 436.2 462.7 439.6C463.1 441.9 464.2 443.7 465.9 444.8C467.3 445.7 468.8 447 469.2 447.6C469.6 448.2 472.6 450 475.7 451.5C483.8 455.4 488.7 459.5 489.5 462.9C490.4 467 492.9 468.8 499.3 470.1C507.3 471.7 515.3 470.5 519.3 467.1C525.8 461.5 527.6 460 534 455.6C537.6 453.1 545.2 448.7 551 445.9C556.8 443.1 562.2 440.1 563.1 439.4C563.9 438.6 568.2 436.3 572.6 434.1C577.8 431.5 582.2 428.3 585.6 424.8C590.5 419.7 597 410.3 597 408.4C597 407.9 598 405.7 599.2 403.5C601.5 399.2 605.2 390.2 607.6 383C609.1 378.7 612.4 371.3 617.8 360.2C619.5 356.8 620.9 355 621.9 355.2C624.2 355.7 625.5 361.4 624.2 365.3C620.4 376.4 618.9 380.4 618.1 381.4C617.6 382 616.9 385.7 616.5 389.7C615.9 396.1 616 397 617.9 398.9C621.2 402.2 628.7 402.8 632.8 400.2C633.5 399.7 635.4 394.2 637 388C640 376.6 641.2 374 643.6 374C645.8 374 646.1 372.4 646.5 361.8C646.8 351.7 646.8 351.6 650 349C653.1 346.4 653.2 346.1 652.8 340.4C652.5 336.1 651.7 333.5 650 331.2C647.7 328.1 647.5 326.7 647.1 315.5L646.8 303.1L650 300.1C652.8 297.6 653.2 296.7 652.7 293.3C652.5 291.2 652.9 286.3 653.7 282.5C655.8 272.1 654.5 263.5 650 258.7C646.5 255.1 643.9 245.7 644.6 239.7C645.1 235.6 644.8 233.4 643.6 231C642.7 229.2 642 227.1 642 226.4C642 225.7 640.7 223.6 639.1 221.8C637.6 220 635.5 216.9 634.5 215C633.5 213.1 631.8 210.3 630.8 208.9C628.7 206.1 626.1 196.4 626 191.3C626 188.9 625.4 187.7 623.5 186.8C622 186 619.6 182.5 617.1 177.5C612.5 168.1 606 160.4 598.3 155.3C595.3 153.3 592.6 151 592.3 150.3C591.4 147.9 587.5 147.1 572.2 145.9C564.1 145.4 554.5 144.2 550.8 143.4C543.2 141.8 543.7 141.8 539 143.6Z" fill="black"/>
<path id="Vector_4" d="M768 321.2C749.2 331.5 736.6 342 728.6 353.9C723.4 361.7 713.7 381.6 712 388C707.8 404.3 705.9 415.4 706.9 417.4C707.5 418.5 708.4 420.8 709 422.5C709.6 424.1 711.5 427.9 713.3 430.7C716.1 435.5 717 436.2 722.8 438.1L729.2 440.2L732.1 438.1C733.6 437 735.2 436 735.6 436C736 436 737.8 434.9 739.6 433.5C741.4 432.1 743.5 431 744.3 431C746.9 431 750.8 427 751.5 423.7C752.7 418.4 755.8 413.2 758.2 412.5C760.7 411.8 762.1 410.3 771.6 398.8C778.6 390.4 780 388.1 780 384.7C780 383.3 780.7 381.7 781.5 381C782.3 380.3 783 379.1 783 378.4C783 377.6 784.6 375.2 786.6 373C789.8 369.5 790.5 367.8 791.7 360.2C793.5 350 793.5 349.6 791.8 336.5C790.5 326.6 790.5 326.5 786.9 324.5C785 323.4 782.1 321.5 780.6 320.2C776.9 317.3 774.7 317.5 768 321.2Z" fill="black"/>
<path id="Vector_5" d="M6.40005 325C2.80005 326.4 0.700048 332.5 0.800048 341C1.00005 355.6 4.30005 379.4 6.90005 385.5C7.40005 386.6 8.40005 389.1 9.10005 391C9.80005 392.9 12.5 397.6 15 401.5C17.6 405.3 19.9 409.3 20.3 410.3C20.7 411.2 22.1 412.5 23.6 413C25 413.6 27.4 415 28.9 416.1C37.6 422.8 39.4 423.8 44.8 425C53.9 426.9 70.7 425.3 74.4 422.1C76.2 420.6 76.2 419.3 75.6 401C75.1 387.8 74.5 380.9 73.6 379.5C72.9 378.4 72 376.2 71.6 374.7C71.2 373.1 68.8 369.7 66.2 367.1C58 358.7 54.4 354.6 53.1 352.1C51.9 349.9 48.3 344.9 42.4 337.2C40.3 334.5 39.3 334 35.6 334C32.4 334 28.7 332.7 21.4 329C11.3 323.9 10 323.5 6.40005 325Z" fill="black"/>
<path id="Vector_6" d="M86.8 441C78.9 442 76.5 443.4 68 452.8C60.6 460.8 56 469.9 56 476.4C56 478.9 54.8 484.4 53.4 488.7C49 502.1 45 519.1 45 524.4C45 531.3 47.3 539.3 50.8 545C52.4 547.6 54.5 551.8 55.5 554.4C57.3 559 57.3 559.1 55.2 562C54 563.6 53 566 53 567.2C53 569.5 56.6 575.5 60.2 579.4C62.3 581.7 62.4 583.2 60.8 587.6C59.4 591.5 60.9 594 64.7 594C66 594 68.2 594.7 69.6 595.7C72.3 597.4 76 603.8 76 606.7C76 607.7 77.1 611.6 78.4 615.5C79.8 619.3 81.2 625.3 81.6 628.9C82.3 635.7 82.7 636.3 93.5 650.2C96 653.4 98 656.3 98 656.7C98.1 657.1 99.4 659.1 101 661C102.7 662.9 104 664.9 104 665.4C104 666.7 111.2 673.3 115.7 676.2C124.6 681.7 132.1 683.7 153.2 686.1C164.8 687.4 167.7 687.2 185.1 684.1C200.6 681.3 203.5 680.1 210 674.1C213.4 670.9 217 668.6 219.5 667.9C231.8 664.7 244.9 652.3 251 638C253.8 631.4 259.5 622.7 264.6 617.1C267.4 614 271 609.5 272.5 607.1C275.1 602.9 275.2 602.2 274.5 596.1C274.1 592.5 273.9 587.5 274.1 585C274.9 573.5 274.6 570.4 271.8 566.4C268.9 562.3 268.8 561.8 266.9 548C265.5 537.3 262.4 524.6 259.9 519.7C258.9 517.5 258 515 258 513.9C258 511.5 255.1 510 250.5 510C245 510 238.4 505.5 235.3 499.7C234.5 498.2 233.1 496.1 232.2 495.2C229.9 492.9 220.8 481.1 218.8 478C216.2 473.7 206.7 464 203 461.7C201.1 460.5 198.9 459 198.2 458.3C197.5 457.6 195.7 456.7 194.2 456.4C192.7 456.1 189.7 455.2 187.5 454.5C185.3 453.7 182.4 452.9 181 452.6C179.6 452.3 177.7 450.8 176.8 449.3C175.2 446.6 174.5 446.4 160.3 444.3C152.2 443.1 140.8 441.6 135 441C123.2 439.9 96.9 439.9 86.8 441Z" fill="black"/>
<path id="Vector_7" d="M699.9 446.5C699.6 446.7 694.9 447.6 689.4 448.5C684 449.3 677.7 450.5 675.6 451.1C669.7 452.7 661.1 457.9 659.2 460.9C655.5 466.6 654.2 467.1 645.8 466.5C641.5 466.2 636.9 465.5 635.4 465C631 463.3 626.5 463.9 620.3 467C615.9 469.2 613.9 470.9 613 473.1C611.4 476.8 607.5 479.9 598.3 484.5C594.4 486.5 590.1 489.2 588.8 490.6C587.5 492 583.6 496.1 580 499.8C576.4 503.5 572.6 507.8 571.5 509.4C570.4 510.9 569 512.8 568.3 513.5C566.6 515.3 561.4 523.9 559.6 527.8C558.7 529.7 555.4 534.4 552.2 538.4C548.2 543.4 546 547.2 545.1 550.6C542 562.8 540.5 566.3 536.5 570.1C534.3 572.3 531.9 574 531.3 574C529.4 574 524.9 581.3 523.9 586C523.1 589.6 523.3 591 525.7 596.2L528.4 602.2L526 606.8C524.7 609.4 522.8 613.2 521.7 615.3C519.5 619.7 519.8 625.5 522.4 629.5C523.7 631.4 524.9 632 527.7 632C530.4 632 532 632.7 534.1 635C535.7 636.6 537 638.7 537 639.5C537 640.3 537.9 643.8 539.1 647.2C541.3 653.8 544.8 658 548.1 658C550.3 658 554 663.4 554 666.7C554 668.8 560 674.6 567.5 679.7C569.2 680.9 573.6 684.7 577.5 688.3C581.5 692.1 586 695.3 588.1 695.9C594.1 697.7 597.8 705.6 598 717C598 720 598.7 726.1 599.4 730.5C600.9 738.6 602.4 741 606.2 741C608.2 741 622.6 733.7 624.9 731.5C626.7 729.7 625.7 727.2 622.6 726C619.7 725 619.3 723.5 619.4 715.5L619.5 709.5L623.2 709.2C625.4 709 628.4 709.7 630.9 710.9C635.9 713.5 638.1 713.5 646.5 710.9C650.2 709.8 656.2 708.3 659.8 707.5C663.5 706.8 668.3 705.5 670.5 704.6C672.7 703.8 677.8 703.1 682 703C693.2 703 696.4 700.6 699.6 690.2C701.4 684.1 701.3 682 699.2 673.3C697.5 666.9 697.5 665.1 698.6 655.6C699.3 649.8 700.4 644 701.1 642.8C701.7 641.6 702.5 636.5 702.8 631.6C703.2 623.4 703.7 621.6 707.6 613.4C710 608.4 712 603.4 712 602.3C712 601.2 712.9 599.1 714 597.7C715.1 596.3 716 594.9 716 594.5C716 594.2 717.3 592.2 718.9 590.2C720.5 588.2 722.4 584.7 723.1 582.5C723.9 580.3 724.9 578.2 725.3 577.9C725.8 577.6 726.6 571.9 727.1 565.4C729 541.4 729 541.2 731.8 537.3C734.2 533.7 734.5 532.5 735.1 518.5C735.5 510.2 736.1 497.1 736.5 489.3L737.3 475L733.8 471.8C731.9 469.9 729.8 466.7 729.2 464.3C728.3 461.3 725.9 458.1 721 453.1L714 446H707.2C703.4 446 700.1 446.2 699.9 446.5Z" fill="black"/>
<path id="Vector_8" d="M409.5 671.6C407.9 672.4 406.1 673.5 405.6 674C405.2 674.4 399.8 674.6 393.6 674.3C383.8 673.8 382.1 674 379 675.7C377.1 676.8 374.2 678 372.7 678.4C371.2 678.7 366.5 681.5 362.2 684.5C349.3 693.7 344.8 696.4 337 699.9C332.9 701.7 328.6 704.2 327.5 705.4C324.9 708.4 313.8 715.2 302.5 720.8C293.1 725.4 287.6 729.5 284.8 734.1C283.9 735.7 281.6 737.7 279.8 738.6C277 740 269.8 745.2 268 747C267.7 747.3 264.1 750.2 260 753.5C255.9 756.8 252.3 759.7 252 760C251.7 760.3 249.6 761.8 247.2 763.4C244.8 765 242.5 767.1 242 768.1C241.5 769 239 772.2 236.5 775.1C234 778.1 230.8 782.7 229.3 785.5C227.9 788.2 225.7 792.3 224.4 794.5C223.1 796.7 221.5 799.6 220.9 801C220.3 802.4 219.3 804.3 218.8 805.4C217.3 808.2 215.1 815.8 214 822.2C213.2 826.6 213.3 829.4 214.4 834.7C215.2 838.4 216.1 843.2 216.5 845.3C216.8 847.4 218 850.6 219.1 852.3C220.1 854.1 221 856.1 221 856.9C221 858.5 227.5 864.4 232.9 867.7C235.8 869.6 237.4 869.9 241.6 869.4C244.7 869 247.5 869.2 248.8 869.9C250 870.5 253.2 871.5 256 872C258.9 872.5 262.6 873.6 264.3 874.4C266.1 875.2 269.2 876.4 271.3 877C273.5 877.7 276.4 878.8 277.8 879.6C279.3 880.4 281.2 881 282.1 881C282.9 881 284.5 881.7 285.6 882.5C286.6 883.3 288.2 884 289 884C289.8 884 291.9 884.7 293.5 885.6C304.8 891.5 321.9 894.2 335 892C345.4 890.2 359.8 890.4 371 892.4C382.6 894.5 392.5 896.1 396.5 896.6C403.5 897.4 408.1 898.6 408 899.5C408 900.1 413.1 900.6 420.9 900.8C433 901 433.8 900.9 434.3 899.1C434.6 897.8 436 896.9 438.6 896.4C440.8 896.1 443 895.3 443.6 894.8C444.3 894.3 449.3 892.8 454.7 891.5C463.3 889.4 467.6 889.1 487.3 888.7C506.7 888.4 510.2 888.1 511.8 886.7C512.9 885.7 515.3 885 517.6 885C519.7 885 522.9 884.3 524.5 883.4C526.2 882.5 528.7 881.1 530.2 880.3C534.8 877.9 538.8 871.9 539.2 867C539.4 863.4 540 862.4 542.4 861C545.2 859.5 550.3 850.6 558.4 833.5C563.4 822.7 564.5 821.1 567.3 819.9C573.4 817.3 575 815.2 575 809.7C575 804.8 574.8 804.4 571.2 802.1C566 798.7 565 797.2 565 793C565 789.1 562.6 786 559.7 786C554.9 786 552 777.8 550.8 761C549.2 737.2 548.9 739.8 554 737.3C558.3 735.1 559 735.1 567.3 736.1C575.5 737.2 576.3 737.2 578 735.4C581.4 731.9 581 727.6 577 726C575.4 725.3 571.2 722.8 567.8 720.4C564.3 718 561 716 560.4 716C559.8 716 558.6 715.2 557.7 714.2C556.7 713.2 553.2 710.9 549.7 709.2C546.3 707.5 542.2 704.9 540.6 703.5C539 702.1 537.3 701 536.8 701C536.3 701 534.3 699.8 532.4 698.3C525.6 693.2 509.4 686.7 498.9 684.9C487.2 683 486.9 683 484.3 687.5C483.1 689.7 482 692.5 482 693.8C482 695.1 480.7 697.5 479.1 699.1C476.5 701.6 475.4 702 470.5 702C463.6 702 457.8 699.2 449.5 692C446.2 689.1 442.2 686.1 440.5 685.3C438.9 684.5 436.4 683.2 435 682.5C433.6 681.7 431.5 681 430.4 681C428.1 681 418.8 675.2 415.7 671.9C413.6 669.6 413.3 669.6 409.5 671.6Z" fill="black"/>
</g>
</svg>
